<svg xmlns="http://www.w3.org/2000/svg" xmlns:xlink="http://www.w3.org/1999/xlink" width="354.7" height="232.937" viewBox="0 0 354.7 232.937">
  <defs>
    <linearGradient id="linear-gradient" x1="0.584" y1="2.647" x2="0.448" y2="-0.017" gradientUnits="objectBoundingBox">
      <stop offset="0" stop-color="#00acc1"/>
      <stop offset="1" stop-color="#4de4ad"/>
    </linearGradient>
    <linearGradient id="linear-gradient-2" x1="0.703" y1="1.04" x2="0.268" y2="-0.078" gradientUnits="objectBoundingBox">
      <stop offset="0" stop-color="#39e3c6"/>
      <stop offset="1" stop-color="#4de4ad"/>
    </linearGradient>
    <linearGradient id="linear-gradient-3" x1="1.923" y1="1.282" x2="0.028" y2="0.216" gradientUnits="objectBoundingBox">
      <stop offset="0" stop-color="#3c0aff"/>
      <stop offset="1" stop-color="#b84fff"/>
    </linearGradient>
    <linearGradient id="linear-gradient-4" x1="0.282" y1="0.98" x2="1.167" y2="-0.824" xlink:href="#linear-gradient-3"/>
    <linearGradient id="linear-gradient-5" x1="0.495" y1="1.317" x2="0.507" y2="-0.572" gradientUnits="objectBoundingBox">
      <stop offset="0" stop-color="#fe9300"/>
      <stop offset="1" stop-color="#fec800"/>
    </linearGradient>
    <linearGradient id="linear-gradient-6" x1="0" y1="0.5" x2="1" y2="0.5" xlink:href="#linear-gradient-5"/>
    <linearGradient id="linear-gradient-7" x1="0.495" y1="1.317" x2="0.507" y2="-0.572" gradientUnits="objectBoundingBox">
      <stop offset="0" stop-color="#eef9a2"/>
      <stop offset="1" stop-color="#f1ff24"/>
    </linearGradient>
    <linearGradient id="linear-gradient-8" x1="0.495" y1="1.317" x2="0.507" y2="-0.572" gradientUnits="objectBoundingBox">
      <stop offset="0" stop-color="#1094ff"/>
      <stop offset="1" stop-color="#24cbff"/>
    </linearGradient>
    <linearGradient id="linear-gradient-9" x1="0.495" y1="1.317" x2="0.507" y2="-0.572" gradientUnits="objectBoundingBox">
      <stop offset="0" stop-color="#bb61f7"/>
      <stop offset="1" stop-color="#ddb4f8"/>
    </linearGradient>
    <linearGradient id="linear-gradient-10" x1="0.495" y1="1.317" x2="0.507" y2="-0.572" gradientUnits="objectBoundingBox">
      <stop offset="0" stop-color="#f6bf6f"/>
      <stop offset="1" stop-color="#f90"/>
    </linearGradient>
    <linearGradient id="linear-gradient-11" x1="0.495" y1="1.317" x2="0.507" y2="-0.572" gradientUnits="objectBoundingBox">
      <stop offset="0" stop-color="#31d0b5"/>
      <stop offset="1" stop-color="#31d0b5"/>
    </linearGradient>
    <linearGradient id="linear-gradient-12" x1="0.701" y1="0.221" x2="-0.417" y2="1.77" xlink:href="#linear-gradient-3"/>
    <linearGradient id="linear-gradient-13" x1="0.59" y1="1.894" x2="0.454" y2="0.55" xlink:href="#linear-gradient"/>
  </defs>
  <g id="LANDFILL_SAVE" data-name="LANDFILL SAVE" transform="translate(-1325 -1827.744)">
    <path id="Path_555" data-name="Path 555" d="M373.539,398.082c0,8.17-79.4,20.656-177.35,20.656s-177.35-6.623-177.35-14.793,79.4-14.794,177.35-14.794S373.539,389.912,373.539,398.082Z" transform="translate(1306.161 1641.942)" fill="#f6bf6f" opacity="0.2"/>
    <g id="Group_106" data-name="Group 106" transform="translate(1338.446 1827.744)">
      <path id="Path_188" data-name="Path 188" d="M166.989,444.258c-.679-5.238-1.765-11.275-3.439-15.275-3.525-8.417-6.59-3.739-14.712,1.876s-5.363-37.1-14.711-46.143-14.559,9.664-20.687,23.381-8.888,7.17-17.316,4.054c-7.768-2.874-9.939,27.357-10.232,32.107Z" transform="translate(-85.891 -228.522)" fill="url(#linear-gradient)"/>
      <g id="Group_73" data-name="Group 73" transform="translate(204.477 90.382)">
        <rect id="Rectangle_27" data-name="Rectangle 27" width="85.074" height="119.306" rx="6.391" transform="translate(13.053 5.225)" fill="#1ab8ff"/>
        <rect id="Rectangle_28" data-name="Rectangle 28" width="76.756" height="112.354" rx="5.766" transform="translate(17.023 8.648)" fill="#f2f8fd"/>
        <rect id="Rectangle_29" data-name="Rectangle 29" width="23.064" height="112.354" transform="translate(65.043 8.648)" fill="#deeee9"/>
        <path id="Path_189" data-name="Path 189" d="M398.1,278.156H330.329V402.682H398.1a4.954,4.954,0,0,0,4.632-5.224V283.381a4.955,4.955,0,0,0-4.632-5.225Z" transform="translate(-317.653 -278.156)" fill="url(#linear-gradient-2)"/>
        <path id="Path_190" data-name="Path 190" d="M327.215,278.156h-9.732a4.955,4.955,0,0,0-4.633,5.225V397.457a4.955,4.955,0,0,0,4.633,5.224h9.732Z" transform="translate(-312.842 -278.156)" fill="url(#linear-gradient-3)"/>
        <rect id="Rectangle_30" data-name="Rectangle 30" width="53.597" height="14.073" rx="5.87" transform="translate(21.182 31.666)" fill="#fff"/>
      </g>
      <g id="Group_88" data-name="Group 88" transform="translate(64.193 0)">
        <g id="Group_85" data-name="Group 85" transform="translate(0.394 179.831)">
          <g id="Group_84" data-name="Group 84" transform="translate(0)">
            <path id="Path_223" data-name="Path 223" d="M234.829,389.023H180.11a3.921,3.921,0,0,0-3.665,4.136v26.462a3.921,3.921,0,0,0,3.665,4.134h54.719Z" transform="translate(-176.439 -389.023)" fill="url(#linear-gradient-4)"/>
            <path id="Path_224" data-name="Path 224" d="M259.977,416.877V395.9a2.175,2.175,0,0,1,2.033-2.292h80.945a2.175,2.175,0,0,0,2.033-2.294h0a2.175,2.175,0,0,0-2.033-2.292H248.641a3.922,3.922,0,0,0-3.667,4.136v26.462a3.921,3.921,0,0,0,3.667,4.134h94.308a2.175,2.175,0,0,0,2.033-2.292h0a2.175,2.175,0,0,0-2.033-2.292H262.008a2.175,2.175,0,0,1-2.031-2.295Z" transform="translate(-195.306 -389.023)" fill="#db4fff"/>
            <path id="Rectangle_32" data-name="Rectangle 32" d="M10.892,0H90.677V25.562H10.892A10.892,10.892,0,0,1,0,14.669V10.892A10.892,10.892,0,0,1,10.892,0Z" transform="translate(55.273 4.586)" fill="#fff"/>
            <path id="Path_225" data-name="Path 225" d="M252.7,415.419v.978c0,4.193,3.014,7.592,6.732,7.592h83.945v-8.57Z" transform="translate(-197.432 -393.843)" fill="#f1eeeb"/>
          </g>
          <rect id="Rectangle_33" data-name="Rectangle 33" width="31.312" height="11.773" transform="translate(8.003 11.889)" fill="#424242"/>
        </g>
        <g id="Group_87" data-name="Group 87" transform="translate(14.071 154.778)">
          <g id="Group_86" data-name="Group 86" transform="translate(0)">
            <path id="Path_226" data-name="Path 226" d="M253.7,358.373H198.982a3.921,3.921,0,0,0-3.665,4.136v17.416a3.921,3.921,0,0,0,3.665,4.136H253.7V358.374Z" transform="translate(-195.311 -358.373)" fill="url(#linear-gradient-5)"/>
            <path id="Path_227" data-name="Path 227" d="M278.848,377.181V365.252a2.175,2.175,0,0,1,2.033-2.292h80.945a2.175,2.175,0,0,0,2.033-2.292h0a2.175,2.175,0,0,0-2.033-2.294H267.518a3.922,3.922,0,0,0-3.667,4.136v17.416a3.922,3.922,0,0,0,3.667,4.136h94.308a2.175,2.175,0,0,0,2.033-2.294h0a2.175,2.175,0,0,0-2.033-2.292H280.881A2.174,2.174,0,0,1,278.848,377.181Z" transform="translate(-214.177 -358.373)" fill="url(#linear-gradient-6)"/>
            <path id="Path_228" data-name="Path 228" d="M362.253,380.5H278.308c-3.718,0-6.732-3.4-6.732-7.592v-1.328c0-4.193,3.013-7.592,6.732-7.592h83.945Z" transform="translate(-216.303 -359.398)" fill="#fff"/>
            <path id="Path_229" data-name="Path 229" d="M271.576,373.7v.978c0,4.193,3.013,7.592,6.732,7.592h83.945V373.7Z" transform="translate(-216.303 -361.172)" fill="#f1eeeb"/>
          </g>
        </g>
        <g id="Group_203" data-name="Group 203" transform="translate(5.863 128.982)">
          <g id="Group_86-2" data-name="Group 86">
            <path id="Path_226-2" data-name="Path 226" d="M253.7,358.373H198.982a3.921,3.921,0,0,0-3.665,4.136v17.416a3.921,3.921,0,0,0,3.665,4.136H253.7V358.374Z" transform="translate(-195.311 -358.373)" fill="url(#linear-gradient-7)"/>
            <path id="Path_227-2" data-name="Path 227" d="M278.848,377.181V365.252a2.175,2.175,0,0,1,2.033-2.292h80.945a2.175,2.175,0,0,0,2.033-2.292h0a2.175,2.175,0,0,0-2.033-2.294H267.518a3.922,3.922,0,0,0-3.667,4.136v17.416a3.922,3.922,0,0,0,3.667,4.136h94.308a2.175,2.175,0,0,0,2.033-2.294h0a2.175,2.175,0,0,0-2.033-2.292H280.881A2.174,2.174,0,0,1,278.848,377.181Z" transform="translate(-214.177 -358.373)" fill="#eee279"/>
            <path id="Path_228-2" data-name="Path 228" d="M362.253,380.5H278.308c-3.718,0-6.732-3.4-6.732-7.592v-1.328c0-4.193,3.013-7.592,6.732-7.592h83.945Z" transform="translate(-216.303 -359.398)" fill="#fff"/>
            <path id="Path_229-2" data-name="Path 229" d="M271.576,373.7v.978c0,4.193,3.013,7.592,6.732,7.592h83.945V373.7Z" transform="translate(-216.303 -361.172)" fill="#f1eeeb"/>
          </g>
        </g>
        <g id="Group_204" data-name="Group 204" transform="translate(14.071 103.185)">
          <g id="Group_86-3" data-name="Group 86">
            <path id="Path_226-3" data-name="Path 226" d="M253.7,358.373H198.982a3.921,3.921,0,0,0-3.665,4.136v17.416a3.921,3.921,0,0,0,3.665,4.136H253.7V358.374Z" transform="translate(-195.311 -358.373)" fill="url(#linear-gradient-8)"/>
            <path id="Path_227-3" data-name="Path 227" d="M278.848,377.181V365.252a2.175,2.175,0,0,1,2.033-2.292h80.945a2.175,2.175,0,0,0,2.033-2.292h0a2.175,2.175,0,0,0-2.033-2.294H267.518a3.922,3.922,0,0,0-3.667,4.136v17.416a3.922,3.922,0,0,0,3.667,4.136h94.308a2.175,2.175,0,0,0,2.033-2.294h0a2.175,2.175,0,0,0-2.033-2.292H280.881A2.174,2.174,0,0,1,278.848,377.181Z" transform="translate(-214.177 -358.373)" fill="#79cfee"/>
            <path id="Path_228-3" data-name="Path 228" d="M362.253,380.5H278.308c-3.718,0-6.732-3.4-6.732-7.592v-1.328c0-4.193,3.013-7.592,6.732-7.592h83.945Z" transform="translate(-216.303 -359.398)" fill="#fff"/>
            <path id="Path_229-3" data-name="Path 229" d="M271.576,373.7v.978c0,4.193,3.013,7.592,6.732,7.592h83.945V373.7Z" transform="translate(-216.303 -361.172)" fill="#f1eeeb"/>
          </g>
        </g>
        <g id="Group_205" data-name="Group 205" transform="translate(0 77.389)">
          <g id="Group_86-4" data-name="Group 86" transform="translate(0)">
            <path id="Path_226-4" data-name="Path 226" d="M253.7,358.373H198.982a3.921,3.921,0,0,0-3.665,4.136v17.416a3.921,3.921,0,0,0,3.665,4.136H253.7V358.374Z" transform="translate(-195.311 -358.373)" fill="#ff68ae"/>
            <path id="Path_227-4" data-name="Path 227" d="M278.848,377.181V365.252a2.175,2.175,0,0,1,2.033-2.292h80.945a2.175,2.175,0,0,0,2.033-2.292h0a2.175,2.175,0,0,0-2.033-2.294H267.518a3.922,3.922,0,0,0-3.667,4.136v17.416a3.922,3.922,0,0,0,3.667,4.136h94.308a2.175,2.175,0,0,0,2.033-2.294h0a2.175,2.175,0,0,0-2.033-2.292H280.881A2.174,2.174,0,0,1,278.848,377.181Z" transform="translate(-214.177 -358.373)" fill="#ee79b0"/>
            <path id="Path_228-4" data-name="Path 228" d="M362.253,380.5H278.308c-3.718,0-6.732-3.4-6.732-7.592v-1.328c0-4.193,3.013-7.592,6.732-7.592h83.945Z" transform="translate(-216.303 -359.398)" fill="#fff"/>
            <path id="Path_229-4" data-name="Path 229" d="M271.576,373.7v.978c0,4.193,3.013,7.592,6.732,7.592h83.945V373.7Z" transform="translate(-216.303 -361.172)" fill="#f1eeeb"/>
          </g>
        </g>
        <g id="Group_206" data-name="Group 206" transform="translate(14.071 51.593)">
          <g id="Group_86-5" data-name="Group 86">
            <path id="Path_226-5" data-name="Path 226" d="M253.7,358.373H198.982a3.921,3.921,0,0,0-3.665,4.136v17.416a3.921,3.921,0,0,0,3.665,4.136H253.7V358.374Z" transform="translate(-195.311 -358.373)" fill="url(#linear-gradient-9)"/>
            <path id="Path_227-5" data-name="Path 227" d="M278.848,377.181V365.252a2.175,2.175,0,0,1,2.033-2.292h80.945a2.175,2.175,0,0,0,2.033-2.292h0a2.175,2.175,0,0,0-2.033-2.294H267.518a3.922,3.922,0,0,0-3.667,4.136v17.416a3.922,3.922,0,0,0,3.667,4.136h94.308a2.175,2.175,0,0,0,2.033-2.294h0a2.175,2.175,0,0,0-2.033-2.292H280.881A2.174,2.174,0,0,1,278.848,377.181Z" transform="translate(-214.177 -358.373)" fill="#ddb4f8"/>
            <path id="Path_228-5" data-name="Path 228" d="M362.253,380.5H278.308c-3.718,0-6.732-3.4-6.732-7.592v-1.328c0-4.193,3.013-7.592,6.732-7.592h83.945Z" transform="translate(-216.303 -359.398)" fill="#fff"/>
            <path id="Path_229-5" data-name="Path 229" d="M271.576,373.7v.978c0,4.193,3.013,7.592,6.732,7.592h83.945V373.7Z" transform="translate(-216.303 -361.172)" fill="#f1eeeb"/>
          </g>
        </g>
        <g id="Group_207" data-name="Group 207" transform="translate(25.796 25.796)">
          <g id="Group_86-6" data-name="Group 86">
            <path id="Path_226-6" data-name="Path 226" d="M253.7,358.373H198.982a3.921,3.921,0,0,0-3.665,4.136v17.416a3.921,3.921,0,0,0,3.665,4.136H253.7V358.374Z" transform="translate(-195.311 -358.373)" fill="url(#linear-gradient-10)"/>
            <path id="Path_227-6" data-name="Path 227" d="M278.848,377.181V365.252a2.175,2.175,0,0,1,2.033-2.292h80.945a2.175,2.175,0,0,0,2.033-2.292h0a2.175,2.175,0,0,0-2.033-2.294H267.518a3.922,3.922,0,0,0-3.667,4.136v17.416a3.922,3.922,0,0,0,3.667,4.136h94.308a2.175,2.175,0,0,0,2.033-2.294h0a2.175,2.175,0,0,0-2.033-2.292H280.881A2.174,2.174,0,0,1,278.848,377.181Z" transform="translate(-214.177 -358.373)" fill="#f6bf6f"/>
            <path id="Path_228-6" data-name="Path 228" d="M362.253,380.5H278.308c-3.718,0-6.732-3.4-6.732-7.592v-1.328c0-4.193,3.013-7.592,6.732-7.592h83.945Z" transform="translate(-216.303 -359.398)" fill="#fff"/>
            <path id="Path_229-6" data-name="Path 229" d="M271.576,373.7v.978c0,4.193,3.013,7.592,6.732,7.592h83.945V373.7Z" transform="translate(-216.303 -361.172)" fill="#f1eeeb"/>
          </g>
        </g>
        <g id="Group_208" data-name="Group 208" transform="translate(14.071)">
          <g id="Group_86-7" data-name="Group 86">
            <path id="Path_226-7" data-name="Path 226" d="M253.7,358.373H198.982a3.921,3.921,0,0,0-3.665,4.136v17.416a3.921,3.921,0,0,0,3.665,4.136H253.7V358.374Z" transform="translate(-195.311 -358.373)" fill="url(#linear-gradient-11)"/>
            <path id="Path_227-7" data-name="Path 227" d="M278.848,377.181V365.252a2.175,2.175,0,0,1,2.033-2.292h80.945a2.175,2.175,0,0,0,2.033-2.292h0a2.175,2.175,0,0,0-2.033-2.294H267.518a3.922,3.922,0,0,0-3.667,4.136v17.416a3.922,3.922,0,0,0,3.667,4.136h94.308a2.175,2.175,0,0,0,2.033-2.294h0a2.175,2.175,0,0,0-2.033-2.292H280.881A2.174,2.174,0,0,1,278.848,377.181Z" transform="translate(-214.177 -358.373)" fill="#4fffd5"/>
            <path id="Path_228-7" data-name="Path 228" d="M362.253,380.5H278.308c-3.718,0-6.732-3.4-6.732-7.592v-1.328c0-4.193,3.013-7.592,6.732-7.592h83.945Z" transform="translate(-216.303 -359.398)" fill="#fff"/>
            <path id="Path_229-7" data-name="Path 229" d="M271.576,373.7v.978c0,4.193,3.013,7.592,6.732,7.592h83.945V373.7Z" transform="translate(-216.303 -361.172)" fill="#f1eeeb"/>
          </g>
        </g>
        <path id="Path_230" data-name="Path 230" d="M205.192,384.059h4.319V358.374h-4.319Z" transform="translate(-183.958 -203.595)" fill="url(#linear-gradient-12)"/>
      </g>
    </g>
    <path id="Path_556" data-name="Path 556" d="M436.255,423.36a35.471,35.471,0,0,0-2.261-9.005c-2.316-4.962-4.33-2.206-9.668,1.1s-3.525-21.871-9.668-27.2-9.567,5.7-13.595,13.785-5.841,4.221-11.38,2.39c-5.105-1.694-6.531,16.13-6.723,18.93Z" transform="translate(1231.887 1618.949)" fill="url(#linear-gradient-13)"/>
  </g>
</svg>
